# xmcd CD database file
#
# Track frame offsets:
#	150
#	30650
#	46288
#	68376
#	87465
#	102288
#	128364
#	151115
#	169496
#	187141
#
# Disc length: 2702 seconds
#
# Revision: 9
# Processed by: cddbd v1.5.2PL0 Copyright (c) Steve Scherf et al.
# Submitted via: CDex 1.70beta3
#
DISCID=790a8c0a
DTITLE=萩原雪歩 (浅倉杏美) - THE IDOLM@STER MASTER ARTIST 2 -FIRST SEASON- 07 萩原雪歩
DYEAR=2010
DGENRE=Soundtrack
TTITLE0=萩原雪歩 (浅倉杏美), 双海真美 (下田麻美), 高槻やよい (仁後真耶子) - トーク 01 -挨拶-
TTITLE1=何度も言えるよ
TTITLE2=萩原雪歩 (浅倉杏美), 双海真美 (下田麻美), 高槻やよい (仁後真耶子) - トーク 02
TTITLE3=スウィートドーナッツ (Version Yukiho)
TTITLE4=萩原雪歩 (浅倉杏美), 双海真美 (下田麻美), 高槻やよい (仁後真耶子) - トーク 03
TTITLE5=LOST
TTITLE6=恋
TTITLE7=萩原雪歩 (浅倉杏美), 双海真美 (下田麻美), 高槻やよい (仁後真耶子) - トーク 04
TTITLE8=MEGARE! (M@STER VERSION)
TTITLE9=何度も言えるよ (オリジナル・カラオケ)
EXTD=YEAR: 2010
EXTT0=
EXTT1=
EXTT2=
EXTT3=
EXTT4=
EXTT5=
EXTT6=
EXTT7=
EXTT8=
EXTT9=
PLAYORDER=
